<?xml version="1.0" standalone="no"?>
<!DOCTYPE svg PUBLIC "-//W3C//DTD SVG 20010904//EN"
 "http://www.w3.org/TR/2001/REC-SVG-20010904/DTD/svg10.dtd">
<svg version="1.0" xmlns="http://www.w3.org/2000/svg"
 width="512.000000pt" height="512.000000pt" viewBox="0 0 512.000000 512.000000"
 preserveAspectRatio="xMidYMid meet">

<g transform="translate(0.000000,512.000000) scale(0.100000,-0.100000)"
fill="#ffffff" stroke="none">
<path d="M1090 4805 c-301 -61 -554 -255 -690 -530 -28 -55 -60 -138 -72 -185
l-23 -85 0 -1445 0 -1445 23 -85 c50 -191 181 -391 335 -515 94 -75 245 -153
362 -187 l80 -23 1455 0 1455 0 80 23 c116 33 268 111 362 187 154 124 283
321 335 515 l23 85 0 1445 0 1445 -23 85 c-50 191 -183 396 -336 517 -95 75
-248 154 -361 185 l-80 23 -1430 2 c-1147 1 -1443 -1 -1495 -12z m2920 -288
c249 -68 444 -264 507 -512 17 -66 18 -156 18 -1445 0 -1289 -1 -1379 -18
-1445 -64 -250 -262 -448 -512 -512 -66 -17 -156 -18 -1445 -18 -1536 0 -1430
-5 -1585 71 -183 89 -321 259 -372 459 -17 66 -18 156 -18 1445 0 1289 1 1379
18 1445 73 285 312 493 607 528 19 2 643 3 1385 3 1254 -2 1355 -3 1415 -19z"/>
<path d="M2494 3861 c-17 -10 -40 -31 -52 -46 l-22 -28 0 -636 c0 -597 1 -638
18 -663 20 -31 783 -625 820 -639 61 -23 139 2 172 56 25 41 26 110 2 150 -10
17 -179 154 -375 305 l-357 275 0 577 0 576 -26 32 c-51 60 -122 77 -180 41z"/>
</g>
</svg>
