<svg width="52" height="23" viewBox="0 0 52 23" fill="none" xmlns="http://www.w3.org/2000/svg">
<path d="M7.79 6.34V9.94H16.55V15.28H7.79V22H0.71V0.999999H17.78V6.34H7.79ZM20.0166 0.999999H27.0966V22H20.0166V0.999999ZM44.3949 10.93H50.5449V19.81C49.3049 20.67 47.8649 21.33 46.2249 21.79C44.5849 22.25 42.9749 22.48 41.3949 22.48C39.1549 22.48 37.1449 22.02 35.3649 21.1C33.5849 20.16 32.1849 18.86 31.1649 17.2C30.1649 15.52 29.6649 13.62 29.6649 11.5C29.6649 9.38 30.1649 7.49 31.1649 5.83C32.1849 4.15 33.5949 2.85 35.3949 1.93C37.2149 0.989999 39.2649 0.519999 41.5449 0.519999C43.6049 0.519999 45.4449 0.869999 47.0649 1.57C48.7049 2.25 50.0649 3.25 51.1449 4.57L46.6149 8.56C45.2949 7.02 43.7249 6.25 41.9049 6.25C40.3449 6.25 39.1049 6.72 38.1849 7.66C37.2649 8.6 36.8049 9.88 36.8049 11.5C36.8049 13.08 37.2549 14.35 38.1549 15.31C39.0749 16.27 40.2949 16.75 41.8149 16.75C42.7149 16.75 43.5749 16.58 44.3949 16.24V10.93Z" fill="white"/>
</svg>
